<mxfile host="65bd71144e">
    <diagram id="rdkxqr2sLyK3LkeXxhjU" name="Page-1">
        <mxGraphModel dx="1860" dy="2270" grid="0" gridSize="10" guides="1" tooltips="1" connect="1" arrows="1" fold="1" page="1" pageScale="1" pageWidth="1169" pageHeight="827" math="0" shadow="0">
            <root>
                <mxCell id="0"/>
                <mxCell id="1" parent="0"/>
                <mxCell id="131" value="" style="group" vertex="1" connectable="0" parent="1">
                    <mxGeometry x="201" y="352" width="840" height="260" as="geometry"/>
                </mxCell>
                <mxCell id="70" value="" style="group;fontSize=23;" vertex="1" connectable="0" parent="131">
                    <mxGeometry x="336" y="37" width="480" height="50" as="geometry"/>
                </mxCell>
                <mxCell id="71" value="B0" style="rounded=0;whiteSpace=wrap;html=1;fontSize=23;" vertex="1" parent="70">
                    <mxGeometry width="120" height="50" as="geometry"/>
                </mxCell>
                <mxCell id="72" value="B1" style="rounded=0;whiteSpace=wrap;html=1;fontSize=23;" vertex="1" parent="70">
                    <mxGeometry x="120" width="120" height="50" as="geometry"/>
                </mxCell>
                <mxCell id="73" value="B2" style="rounded=0;whiteSpace=wrap;html=1;fontSize=23;" vertex="1" parent="70">
                    <mxGeometry x="240" width="120" height="50" as="geometry"/>
                </mxCell>
                <mxCell id="74" value="B3" style="rounded=0;whiteSpace=wrap;html=1;fontSize=23;" vertex="1" parent="70">
                    <mxGeometry x="360" width="120" height="50" as="geometry"/>
                </mxCell>
                <mxCell id="75" value="" style="group;fontSize=23;" vertex="1" connectable="0" parent="131">
                    <mxGeometry x="456" y="107" width="480" height="50" as="geometry"/>
                </mxCell>
                <mxCell id="76" value="B2" style="rounded=0;whiteSpace=wrap;html=1;fontSize=23;" vertex="1" parent="75">
                    <mxGeometry width="120" height="50" as="geometry"/>
                </mxCell>
                <mxCell id="77" value="B3" style="rounded=0;whiteSpace=wrap;html=1;fontSize=23;" vertex="1" parent="75">
                    <mxGeometry x="120" width="120" height="50" as="geometry"/>
                </mxCell>
                <mxCell id="78" value="B0" style="rounded=0;whiteSpace=wrap;html=1;fontSize=23;" vertex="1" parent="75">
                    <mxGeometry x="240" width="120" height="50" as="geometry"/>
                </mxCell>
                <mxCell id="80" value="" style="group;fontSize=23;" vertex="1" connectable="0" parent="131">
                    <mxGeometry x="576" y="177" width="480" height="50" as="geometry"/>
                </mxCell>
                <mxCell id="81" value="B0" style="rounded=0;whiteSpace=wrap;html=1;fontSize=23;" vertex="1" parent="80">
                    <mxGeometry width="120" height="50" as="geometry"/>
                </mxCell>
                <mxCell id="82" value="B1" style="rounded=0;whiteSpace=wrap;html=1;fontSize=23;" vertex="1" parent="80">
                    <mxGeometry x="120" width="120" height="50" as="geometry"/>
                </mxCell>
                <mxCell id="85" value="" style="group;fontSize=23;" vertex="1" connectable="0" parent="131">
                    <mxGeometry x="360" y="210" width="480" height="50" as="geometry"/>
                </mxCell>
                <mxCell id="86" value="B2" style="rounded=0;whiteSpace=wrap;html=1;fontSize=23;" vertex="1" parent="85">
                    <mxGeometry x="336" y="37" width="120" height="50" as="geometry"/>
                </mxCell>
                <mxCell id="79" value="-B1" style="rounded=0;whiteSpace=wrap;html=1;fontSize=23;fillColor=#f8cecc;strokeColor=#b85450;" vertex="1" parent="131">
                    <mxGeometry x="336" y="107" width="120" height="50" as="geometry"/>
                </mxCell>
                <mxCell id="83" value="-B2" style="rounded=0;whiteSpace=wrap;html=1;fontSize=23;fillColor=#f8cecc;strokeColor=#b85450;" vertex="1" parent="131">
                    <mxGeometry x="336" y="177" width="120" height="50" as="geometry"/>
                </mxCell>
                <mxCell id="84" value="-B3" style="rounded=0;whiteSpace=wrap;html=1;fontSize=23;fillColor=#f8cecc;strokeColor=#b85450;" vertex="1" parent="131">
                    <mxGeometry x="456" y="177" width="120" height="50" as="geometry"/>
                </mxCell>
                <mxCell id="87" value="-B3" style="rounded=0;whiteSpace=wrap;html=1;fontSize=23;fillColor=#f8cecc;strokeColor=#b85450;" vertex="1" parent="131">
                    <mxGeometry x="336" y="247" width="120" height="50" as="geometry"/>
                </mxCell>
                <mxCell id="88" value="-B0" style="rounded=0;whiteSpace=wrap;html=1;fontSize=23;fillColor=#f8cecc;strokeColor=#b85450;" vertex="1" parent="131">
                    <mxGeometry x="456" y="247" width="120" height="50" as="geometry"/>
                </mxCell>
                <mxCell id="89" value="-B1" style="rounded=0;whiteSpace=wrap;html=1;fontSize=23;fillColor=#f8cecc;strokeColor=#b85450;" vertex="1" parent="131">
                    <mxGeometry x="576" y="247" width="120" height="50" as="geometry"/>
                </mxCell>
                <mxCell id="143" value="X" style="text;html=1;align=center;verticalAlign=middle;resizable=0;points=[];autosize=1;strokeColor=none;fillColor=none;fontSize=23;" vertex="1" parent="131">
                    <mxGeometry x="303" y="-12" width="33" height="40" as="geometry"/>
                </mxCell>
                <mxCell id="132" value="" style="group;fontSize=23;" vertex="1" connectable="0" parent="1">
                    <mxGeometry x="6" y="329" width="480" height="50" as="geometry"/>
                </mxCell>
                <mxCell id="133" value="A0" style="rounded=0;whiteSpace=wrap;html=1;fontSize=23;" vertex="1" parent="132">
                    <mxGeometry width="120" height="50" as="geometry"/>
                </mxCell>
                <mxCell id="134" value="A1" style="rounded=0;whiteSpace=wrap;html=1;fontSize=23;" vertex="1" parent="132">
                    <mxGeometry x="120" width="120" height="50" as="geometry"/>
                </mxCell>
                <mxCell id="135" value="A2" style="rounded=0;whiteSpace=wrap;html=1;fontSize=23;" vertex="1" parent="132">
                    <mxGeometry x="240" width="120" height="50" as="geometry"/>
                </mxCell>
                <mxCell id="136" value="A3" style="rounded=0;whiteSpace=wrap;html=1;fontSize=23;" vertex="1" parent="132">
                    <mxGeometry x="360" width="120" height="50" as="geometry"/>
                </mxCell>
                <mxCell id="138" value="" style="endArrow=classic;html=1;fontSize=23;curved=1;entryX=0.25;entryY=0.2;entryDx=0;entryDy=0;entryPerimeter=0;exitX=0.343;exitY=0.733;exitDx=0;exitDy=0;exitPerimeter=0;" edge="1" parent="1" source="139" target="140">
                    <mxGeometry width="50" height="50" relative="1" as="geometry">
                        <mxPoint x="846" y="111" as="sourcePoint"/>
                        <mxPoint x="662" y="355" as="targetPoint"/>
                        <Array as="points">
                            <mxPoint x="945" y="190"/>
                        </Array>
                    </mxGeometry>
                </mxCell>
                <mxCell id="140" value="" style="shape=curlyBracket;whiteSpace=wrap;html=1;rounded=1;flipH=1;labelPosition=right;verticalLabelPosition=middle;align=left;verticalAlign=middle;fontSize=23;fillColor=#CCFFE6;rotation=-45;" vertex="1" parent="1">
                    <mxGeometry x="682.8" y="409.55" width="43" height="233" as="geometry"/>
                </mxCell>
                <mxCell id="145" value="" style="endArrow=classic;startArrow=none;html=1;fontSize=32;curved=1;" edge="1" parent="1" source="144">
                    <mxGeometry width="50" height="50" relative="1" as="geometry">
                        <mxPoint x="350" y="51" as="sourcePoint"/>
                        <mxPoint x="721" y="51" as="targetPoint"/>
                    </mxGeometry>
                </mxCell>
                <mxCell id="146" value="" style="endArrow=none;startArrow=classic;html=1;fontSize=32;curved=1;" edge="1" parent="1" target="144">
                    <mxGeometry width="50" height="50" relative="1" as="geometry">
                        <mxPoint x="350" y="51" as="sourcePoint"/>
                        <mxPoint x="721" y="51" as="targetPoint"/>
                    </mxGeometry>
                </mxCell>
                <mxCell id="147" value="pProd2" style="text;html=1;align=center;verticalAlign=middle;resizable=0;points=[];autosize=1;strokeColor=none;fillColor=none;fontSize=32;" vertex="1" parent="1">
                    <mxGeometry x="584" y="54" width="121" height="50" as="geometry"/>
                </mxCell>
                <mxCell id="148" value="" style="endArrow=classic;startArrow=none;html=1;fontSize=32;curved=1;" edge="1" parent="1" source="147">
                    <mxGeometry width="50" height="50" relative="1" as="geometry">
                        <mxPoint x="481" y="80" as="sourcePoint"/>
                        <mxPoint x="852" y="80" as="targetPoint"/>
                    </mxGeometry>
                </mxCell>
                <mxCell id="149" value="" style="endArrow=none;startArrow=classic;html=1;fontSize=32;curved=1;" edge="1" parent="1" target="147">
                    <mxGeometry width="50" height="50" relative="1" as="geometry">
                        <mxPoint x="481" y="80" as="sourcePoint"/>
                        <mxPoint x="852" y="80" as="targetPoint"/>
                    </mxGeometry>
                </mxCell>
                <mxCell id="43" value="" style="endArrow=none;dashed=1;html=1;dashPattern=1 3;strokeWidth=2;fontSize=23;" edge="1" parent="1">
                    <mxGeometry width="50" height="50" relative="1" as="geometry">
                        <mxPoint x="311" y="91" as="sourcePoint"/>
                        <mxPoint x="311" y="-679" as="targetPoint"/>
                    </mxGeometry>
                </mxCell>
                <mxCell id="46" value="" style="group;fontSize=23;" vertex="1" connectable="0" parent="1">
                    <mxGeometry x="192" y="-614" width="840" height="260" as="geometry"/>
                </mxCell>
                <mxCell id="6" value="" style="group;fontSize=23;" vertex="1" connectable="0" parent="46">
                    <mxGeometry width="480" height="50" as="geometry"/>
                </mxCell>
                <mxCell id="2" value="B0" style="rounded=0;whiteSpace=wrap;html=1;fontSize=23;" vertex="1" parent="6">
                    <mxGeometry width="120" height="50" as="geometry"/>
                </mxCell>
                <mxCell id="3" value="B1" style="rounded=0;whiteSpace=wrap;html=1;fontSize=23;" vertex="1" parent="6">
                    <mxGeometry x="120" width="120" height="50" as="geometry"/>
                </mxCell>
                <mxCell id="4" value="B2" style="rounded=0;whiteSpace=wrap;html=1;fontSize=23;" vertex="1" parent="6">
                    <mxGeometry x="240" width="120" height="50" as="geometry"/>
                </mxCell>
                <mxCell id="5" value="B3" style="rounded=0;whiteSpace=wrap;html=1;fontSize=23;" vertex="1" parent="6">
                    <mxGeometry x="360" width="120" height="50" as="geometry"/>
                </mxCell>
                <mxCell id="7" value="" style="group;fontSize=23;" vertex="1" connectable="0" parent="46">
                    <mxGeometry x="120" y="70" width="480" height="50" as="geometry"/>
                </mxCell>
                <mxCell id="8" value="B2" style="rounded=0;whiteSpace=wrap;html=1;fontSize=23;" vertex="1" parent="7">
                    <mxGeometry width="120" height="50" as="geometry"/>
                </mxCell>
                <mxCell id="9" value="B3" style="rounded=0;whiteSpace=wrap;html=1;fontSize=23;" vertex="1" parent="7">
                    <mxGeometry x="120" width="120" height="50" as="geometry"/>
                </mxCell>
                <mxCell id="10" value="B0" style="rounded=0;whiteSpace=wrap;html=1;fontSize=23;" vertex="1" parent="7">
                    <mxGeometry x="240" width="120" height="50" as="geometry"/>
                </mxCell>
                <mxCell id="11" value="B1" style="rounded=0;whiteSpace=wrap;html=1;fontSize=23;" vertex="1" parent="7">
                    <mxGeometry x="360" width="120" height="50" as="geometry"/>
                </mxCell>
                <mxCell id="12" value="" style="group;fontSize=23;" vertex="1" connectable="0" parent="46">
                    <mxGeometry x="240" y="140" width="480" height="50" as="geometry"/>
                </mxCell>
                <mxCell id="13" value="B0" style="rounded=0;whiteSpace=wrap;html=1;fontSize=23;" vertex="1" parent="12">
                    <mxGeometry width="120" height="50" as="geometry"/>
                </mxCell>
                <mxCell id="14" value="B1" style="rounded=0;whiteSpace=wrap;html=1;fontSize=23;" vertex="1" parent="12">
                    <mxGeometry x="120" width="120" height="50" as="geometry"/>
                </mxCell>
                <mxCell id="15" value="B2" style="rounded=0;whiteSpace=wrap;html=1;fontSize=23;" vertex="1" parent="12">
                    <mxGeometry x="240" width="120" height="50" as="geometry"/>
                </mxCell>
                <mxCell id="16" value="B3" style="rounded=0;whiteSpace=wrap;html=1;fontSize=23;" vertex="1" parent="12">
                    <mxGeometry x="360" width="120" height="50" as="geometry"/>
                </mxCell>
                <mxCell id="17" value="" style="group;fontSize=23;" vertex="1" connectable="0" parent="46">
                    <mxGeometry x="360" y="210" width="480" height="50" as="geometry"/>
                </mxCell>
                <mxCell id="18" value="B2" style="rounded=0;whiteSpace=wrap;html=1;fontSize=23;" vertex="1" parent="17">
                    <mxGeometry width="120" height="50" as="geometry"/>
                </mxCell>
                <mxCell id="19" value="B3" style="rounded=0;whiteSpace=wrap;html=1;fontSize=23;" vertex="1" parent="17">
                    <mxGeometry x="120" width="120" height="50" as="geometry"/>
                </mxCell>
                <mxCell id="20" value="B0" style="rounded=0;whiteSpace=wrap;html=1;fontSize=23;" vertex="1" parent="17">
                    <mxGeometry x="240" width="120" height="50" as="geometry"/>
                </mxCell>
                <mxCell id="21" value="B1" style="rounded=0;whiteSpace=wrap;html=1;fontSize=23;" vertex="1" parent="17">
                    <mxGeometry x="360" width="120" height="50" as="geometry"/>
                </mxCell>
                <mxCell id="90" value="" style="group;fontSize=23;" vertex="1" connectable="0" parent="1">
                    <mxGeometry x="192" y="-273" width="840" height="260" as="geometry"/>
                </mxCell>
                <mxCell id="91" value="" style="group;fontSize=23;" vertex="1" connectable="0" parent="90">
                    <mxGeometry width="480" height="50" as="geometry"/>
                </mxCell>
                <mxCell id="92" value="B0" style="rounded=0;whiteSpace=wrap;html=1;fontSize=23;" vertex="1" parent="91">
                    <mxGeometry width="120" height="50" as="geometry"/>
                </mxCell>
                <mxCell id="93" value="B1" style="rounded=0;whiteSpace=wrap;html=1;fontSize=23;" vertex="1" parent="91">
                    <mxGeometry x="120" width="120" height="50" as="geometry"/>
                </mxCell>
                <mxCell id="94" value="B2" style="rounded=0;whiteSpace=wrap;html=1;fontSize=23;" vertex="1" parent="91">
                    <mxGeometry x="240" width="120" height="50" as="geometry"/>
                </mxCell>
                <mxCell id="95" value="B3" style="rounded=0;whiteSpace=wrap;html=1;fontSize=23;" vertex="1" parent="91">
                    <mxGeometry x="360" width="120" height="50" as="geometry"/>
                </mxCell>
                <mxCell id="96" value="" style="group;fontSize=23;" vertex="1" connectable="0" parent="90">
                    <mxGeometry x="120" y="70" width="480" height="50" as="geometry"/>
                </mxCell>
                <mxCell id="97" value="B2" style="rounded=0;whiteSpace=wrap;html=1;fontSize=23;" vertex="1" parent="96">
                    <mxGeometry width="120" height="50" as="geometry"/>
                </mxCell>
                <mxCell id="98" value="B3" style="rounded=0;whiteSpace=wrap;html=1;fontSize=23;" vertex="1" parent="96">
                    <mxGeometry x="120" width="120" height="50" as="geometry"/>
                </mxCell>
                <mxCell id="99" value="B0" style="rounded=0;whiteSpace=wrap;html=1;fontSize=23;" vertex="1" parent="96">
                    <mxGeometry x="240" width="120" height="50" as="geometry"/>
                </mxCell>
                <mxCell id="100" value="-B1" style="rounded=0;whiteSpace=wrap;html=1;fontSize=23;fillColor=#f8cecc;strokeColor=#b85450;" vertex="1" parent="96">
                    <mxGeometry x="360" width="120" height="50" as="geometry"/>
                </mxCell>
                <mxCell id="101" value="" style="group;fontSize=23;" vertex="1" connectable="0" parent="90">
                    <mxGeometry x="240" y="140" width="480" height="50" as="geometry"/>
                </mxCell>
                <mxCell id="102" value="B0" style="rounded=0;whiteSpace=wrap;html=1;fontSize=23;" vertex="1" parent="101">
                    <mxGeometry width="120" height="50" as="geometry"/>
                </mxCell>
                <mxCell id="103" value="B1" style="rounded=0;whiteSpace=wrap;html=1;fontSize=23;" vertex="1" parent="101">
                    <mxGeometry x="120" width="120" height="50" as="geometry"/>
                </mxCell>
                <mxCell id="104" value="-B2" style="rounded=0;whiteSpace=wrap;html=1;fontSize=23;fillColor=#f8cecc;strokeColor=#b85450;" vertex="1" parent="101">
                    <mxGeometry x="240" width="120" height="50" as="geometry"/>
                </mxCell>
                <mxCell id="105" value="-B3" style="rounded=0;whiteSpace=wrap;html=1;fontSize=23;fillColor=#f8cecc;strokeColor=#b85450;" vertex="1" parent="101">
                    <mxGeometry x="360" width="120" height="50" as="geometry"/>
                </mxCell>
                <mxCell id="106" value="" style="group;fontSize=23;" vertex="1" connectable="0" parent="90">
                    <mxGeometry x="360" y="210" width="480" height="50" as="geometry"/>
                </mxCell>
                <mxCell id="107" value="B2" style="rounded=0;whiteSpace=wrap;html=1;fontSize=23;" vertex="1" parent="106">
                    <mxGeometry width="120" height="50" as="geometry"/>
                </mxCell>
                <mxCell id="108" value="-B3" style="rounded=0;whiteSpace=wrap;html=1;fontSize=23;fillColor=#f8cecc;strokeColor=#b85450;" vertex="1" parent="106">
                    <mxGeometry x="120" width="120" height="50" as="geometry"/>
                </mxCell>
                <mxCell id="109" value="-B0" style="rounded=0;whiteSpace=wrap;html=1;fontSize=23;fillColor=#f8cecc;strokeColor=#b85450;" vertex="1" parent="106">
                    <mxGeometry x="240" width="120" height="50" as="geometry"/>
                </mxCell>
                <mxCell id="110" value="-B1" style="rounded=0;whiteSpace=wrap;html=1;fontSize=23;fillColor=#f8cecc;strokeColor=#b85450;" vertex="1" parent="106">
                    <mxGeometry x="360" width="120" height="50" as="geometry"/>
                </mxCell>
                <mxCell id="111" value="" style="endArrow=none;dashed=1;html=1;dashPattern=1 3;strokeWidth=2;fontSize=23;" edge="1" parent="1">
                    <mxGeometry width="50" height="50" relative="1" as="geometry">
                        <mxPoint x="554" y="89" as="sourcePoint"/>
                        <mxPoint x="554" y="-681" as="targetPoint"/>
                    </mxGeometry>
                </mxCell>
                <mxCell id="113" value="" style="endArrow=none;dashed=1;html=1;dashPattern=1 3;strokeWidth=2;fontSize=23;" edge="1" parent="1">
                    <mxGeometry width="50" height="50" relative="1" as="geometry">
                        <mxPoint x="672.41" y="84" as="sourcePoint"/>
                        <mxPoint x="672.41" y="-686" as="targetPoint"/>
                    </mxGeometry>
                </mxCell>
                <mxCell id="114" value="" style="endArrow=none;dashed=1;html=1;dashPattern=1 3;strokeWidth=2;fontSize=23;" edge="1" parent="1">
                    <mxGeometry width="50" height="50" relative="1" as="geometry">
                        <mxPoint x="793" y="86" as="sourcePoint"/>
                        <mxPoint x="793" y="-684" as="targetPoint"/>
                    </mxGeometry>
                </mxCell>
                <mxCell id="115" value="" style="endArrow=none;dashed=1;html=1;dashPattern=1 3;strokeWidth=2;fontSize=23;" edge="1" parent="1">
                    <mxGeometry width="50" height="50" relative="1" as="geometry">
                        <mxPoint x="913" y="84" as="sourcePoint"/>
                        <mxPoint x="913" y="-671" as="targetPoint"/>
                    </mxGeometry>
                </mxCell>
                <mxCell id="117" value="" style="endArrow=none;dashed=1;html=1;dashPattern=1 3;strokeWidth=2;fontSize=23;" edge="1" parent="1">
                    <mxGeometry width="50" height="50" relative="1" as="geometry">
                        <mxPoint x="1030.5" y="84" as="sourcePoint"/>
                        <mxPoint x="1030.5" y="-686" as="targetPoint"/>
                    </mxGeometry>
                </mxCell>
                <mxCell id="118" value="" style="endArrow=none;dashed=1;html=1;dashPattern=1 3;strokeWidth=2;fontSize=23;" edge="1" parent="1">
                    <mxGeometry width="50" height="50" relative="1" as="geometry">
                        <mxPoint x="431.82" y="88" as="sourcePoint"/>
                        <mxPoint x="431.82" y="-682" as="targetPoint"/>
                    </mxGeometry>
                </mxCell>
                <mxCell id="120" value="Clk1" style="text;html=1;strokeColor=none;fillColor=none;align=center;verticalAlign=middle;whiteSpace=wrap;rounded=0;fontSize=23;" vertex="1" parent="1">
                    <mxGeometry x="285" y="-712" width="60" height="30" as="geometry"/>
                </mxCell>
                <mxCell id="121" value="Clk0" style="text;html=1;strokeColor=none;fillColor=none;align=center;verticalAlign=middle;whiteSpace=wrap;rounded=0;fontSize=23;" vertex="1" parent="1">
                    <mxGeometry x="153" y="-712" width="60" height="30" as="geometry"/>
                </mxCell>
                <mxCell id="123" value="" style="endArrow=none;dashed=1;html=1;dashPattern=1 3;strokeWidth=2;fontSize=23;" edge="1" parent="1">
                    <mxGeometry width="50" height="50" relative="1" as="geometry">
                        <mxPoint x="193" y="88" as="sourcePoint"/>
                        <mxPoint x="193" y="-682" as="targetPoint"/>
                    </mxGeometry>
                </mxCell>
                <mxCell id="124" value="Clk2" style="text;html=1;strokeColor=none;fillColor=none;align=center;verticalAlign=middle;whiteSpace=wrap;rounded=0;fontSize=23;" vertex="1" parent="1">
                    <mxGeometry x="403" y="-716" width="60" height="30" as="geometry"/>
                </mxCell>
                <mxCell id="125" value="Clk3" style="text;html=1;strokeColor=none;fillColor=none;align=center;verticalAlign=middle;whiteSpace=wrap;rounded=0;fontSize=23;" vertex="1" parent="1">
                    <mxGeometry x="529" y="-716" width="60" height="30" as="geometry"/>
                </mxCell>
                <mxCell id="126" value="Clk4" style="text;html=1;strokeColor=none;fillColor=none;align=center;verticalAlign=middle;whiteSpace=wrap;rounded=0;fontSize=23;" vertex="1" parent="1">
                    <mxGeometry x="649" y="-716" width="60" height="30" as="geometry"/>
                </mxCell>
                <mxCell id="127" value="Clk5" style="text;html=1;strokeColor=none;fillColor=none;align=center;verticalAlign=middle;whiteSpace=wrap;rounded=0;fontSize=23;" vertex="1" parent="1">
                    <mxGeometry x="766" y="-716" width="60" height="30" as="geometry"/>
                </mxCell>
                <mxCell id="128" value="Clk6" style="text;html=1;strokeColor=none;fillColor=none;align=center;verticalAlign=middle;whiteSpace=wrap;rounded=0;fontSize=23;" vertex="1" parent="1">
                    <mxGeometry x="880" y="-721" width="60" height="30" as="geometry"/>
                </mxCell>
                <mxCell id="129" value="Clk7" style="text;html=1;strokeColor=none;fillColor=none;align=center;verticalAlign=middle;whiteSpace=wrap;rounded=0;fontSize=23;" vertex="1" parent="1">
                    <mxGeometry x="996" y="-721" width="60" height="30" as="geometry"/>
                </mxCell>
                <mxCell id="139" value="" style="shape=curlyBracket;whiteSpace=wrap;html=1;rounded=1;flipH=1;labelPosition=right;verticalLabelPosition=middle;align=left;verticalAlign=middle;fontSize=23;fillColor=#000000;rotation=90;strokeColor=#131111;" vertex="1" parent="1">
                    <mxGeometry x="834" y="-172" width="37" height="352" as="geometry"/>
                </mxCell>
                <mxCell id="144" value="pProd1" style="text;html=1;align=center;verticalAlign=middle;resizable=0;points=[];autosize=1;strokeColor=none;fillColor=none;fontSize=32;" vertex="1" parent="1">
                    <mxGeometry x="453" y="25" width="121" height="50" as="geometry"/>
                </mxCell>
                <mxCell id="151" value="pProd3" style="text;html=1;align=center;verticalAlign=middle;resizable=0;points=[];autosize=1;strokeColor=none;fillColor=none;fontSize=32;" vertex="1" parent="1">
                    <mxGeometry x="717" y="92.71000000000004" width="121" height="50" as="geometry"/>
                </mxCell>
                <mxCell id="152" value="" style="endArrow=classic;startArrow=none;html=1;fontSize=32;curved=1;" edge="1" parent="1" source="151">
                    <mxGeometry width="50" height="50" relative="1" as="geometry">
                        <mxPoint x="614" y="118.71000000000004" as="sourcePoint"/>
                        <mxPoint x="985" y="118.71000000000004" as="targetPoint"/>
                    </mxGeometry>
                </mxCell>
                <mxCell id="153" value="" style="endArrow=none;startArrow=classic;html=1;fontSize=32;curved=1;" edge="1" parent="1" target="151">
                    <mxGeometry width="50" height="50" relative="1" as="geometry">
                        <mxPoint x="614" y="118.71000000000004" as="sourcePoint"/>
                        <mxPoint x="985" y="118.71000000000004" as="targetPoint"/>
                    </mxGeometry>
                </mxCell>
                <mxCell id="155" value="pProd0" style="text;html=1;align=center;verticalAlign=middle;resizable=0;points=[];autosize=1;strokeColor=none;fillColor=none;fontSize=32;" vertex="1" parent="1">
                    <mxGeometry x="342" y="-7.289999999999964" width="121" height="50" as="geometry"/>
                </mxCell>
                <mxCell id="156" value="" style="endArrow=classic;startArrow=none;html=1;fontSize=32;curved=1;" edge="1" parent="1" source="155">
                    <mxGeometry width="50" height="50" relative="1" as="geometry">
                        <mxPoint x="239" y="18.710000000000036" as="sourcePoint"/>
                        <mxPoint x="610" y="18.710000000000036" as="targetPoint"/>
                    </mxGeometry>
                </mxCell>
                <mxCell id="157" value="" style="endArrow=none;startArrow=classic;html=1;fontSize=32;curved=1;" edge="1" parent="1" target="155">
                    <mxGeometry width="50" height="50" relative="1" as="geometry">
                        <mxPoint x="239" y="18.710000000000036" as="sourcePoint"/>
                        <mxPoint x="610" y="18.710000000000036" as="targetPoint"/>
                    </mxGeometry>
                </mxCell>
                <mxCell id="160" value="(b). Polynomial multiplication" style="text;html=1;strokeColor=none;fillColor=none;align=center;verticalAlign=middle;whiteSpace=wrap;rounded=0;fontSize=32;" vertex="1" parent="1">
                    <mxGeometry x="273" y="183" width="624" height="30" as="geometry"/>
                </mxCell>
                <mxCell id="162" value="(c). Polynomial multiplication as matrix multiplication" style="text;html=1;strokeColor=none;fillColor=none;align=center;verticalAlign=middle;whiteSpace=wrap;rounded=0;fontSize=32;" vertex="1" parent="1">
                    <mxGeometry x="188" y="691" width="752" height="30" as="geometry"/>
                </mxCell>
                <mxCell id="163" style="edgeStyle=none;curved=1;html=1;exitX=0;exitY=0.5;exitDx=0;exitDy=0;entryX=0;entryY=0.25;entryDx=0;entryDy=0;fontSize=32;" edge="1" parent="1" source="160" target="160">
                    <mxGeometry relative="1" as="geometry"/>
                </mxCell>
                <mxCell id="164" value="(a). Normal textbook like multiplication" style="text;html=1;strokeColor=none;fillColor=none;align=center;verticalAlign=middle;whiteSpace=wrap;rounded=0;fontSize=32;" vertex="1" parent="1">
                    <mxGeometry x="332.5" y="-328" width="624" height="30" as="geometry"/>
                </mxCell>
            </root>
        </mxGraphModel>
    </diagram>
</mxfile>